<svg width="1024" height="500" xmlns="http://www.w3.org/2000/svg">
  <defs>
    <linearGradient id="bgGradient" x1="0%" y1="0%" x2="100%" y2="100%">
      <stop offset="0%" style="stop-color:#00C853;stop-opacity:1" />
      <stop offset="100%" style="stop-color:#004D40;stop-opacity:1" />
    </linearGradient>
  </defs>

  <!-- Background -->
  <rect width="1024" height="500" fill="url(#bgGradient)" />

  <!-- Abstract Map Path Line -->
  <path d="M-50,400 Q200,450 400,300 T800,200 T1100,100" 
        stroke="white" stroke-width="10" fill="none" opacity="0.3" />
  <path d="M-50,420 Q200,470 400,320 T800,220 T1100,120" 
        stroke="white" stroke-width="4" fill="none" opacity="0.2" />

  <!-- Runner Icon Silhouette (Scaled up from App Icon) -->
  <g transform="translate(750, 100) scale(8)">
     <path fill="#FFFFFF" opacity="0.9"
           d="M13.49,5.48c1.1,0,2-0.9,2-2s-0.9-2-2-2s-2,0.9-2,2S12.39,5.48,13.49,5.48z M11.74,12.71c0.23-1.09-0.03-2.31-0.78-3.09 l-2.32-2.32c-0.45-0.45-1.12-0.65-1.74-0.53L2.39,7.66l1,4.9l3.54-0.72l-1.42,7.3l4.63,0.78l1.7-8.29 L11.74,12.71z M17.06,20.01v-4.5h-2.5v4.5H17.06z M20.5,20.01h-2.5v-6.5l-2.43-1.2l1.64-3.15l3.29,1.64V20.01z" />
  </g>

  <!-- App Title -->
  <text x="80" y="280" font-family="sans-serif" font-weight="bold" font-size="90" fill="white">
    Running
  </text>
  <text x="80" y="380" font-family="sans-serif" font-weight="bold" font-size="90" fill="white">
    Tracker
  </text>
  
  <!-- Subtitle -->
  <text x="85" y="440" font-family="sans-serif" font-size="30" fill="white" opacity="0.8">
    러닝 경로와 페이스, 기록까지 한눈에
  </text>
</svg>